<svg width="113" height="81" viewBox="0 0 113 81" fill="none" xmlns="http://www.w3.org/2000/svg">
<path d="M20.3793 66.7982C22.6782 69.1325 25.2303 71.0554 28.0543 72.6584C28.5545 72.8472 28.8452 72.7017 29.2181 72.3975L34.1015 68.4302C35.9065 70.032 37.8149 71.3007 39.8357 72.4877C40.372 72.8028 40.9545 72.8064 41.3924 72.3446L43.8684 70.2869L44.8613 69.4379L45.9951 68.4807L47.0866 67.4597C53.9059 65.6726 59.9855 62.4918 65.2407 57.9376C67.2901 56.1614 69.1574 54.3214 70.6604 52.1038C70.9723 51.6433 71.1232 51.2308 70.9511 50.6752C69.9956 47.5893 68.6123 44.714 66.9196 41.9516L65.4303 39.52C65.2544 39.2326 65.1446 38.95 65.2868 38.6096L75.7634 29.3726L76.2149 29.2812C76.3372 29.2559 76.4657 29.559 76.4931 29.7033L78.7421 41.4658C78.9941 42.785 79.4331 44.0417 80.2414 45.0459C80.9761 45.9574 82.1299 46.0584 83.0043 45.3537C83.9074 44.6262 84.6159 43.7567 85.1473 42.7285L86.8425 39.4514L88.9305 34.9658L90.0045 32.8757C91.6722 29.6323 94.3528 26.3457 97.8567 24.929C100.435 23.8864 103.324 23.9116 105.804 25.1226C112.367 28.3275 113.895 37.929 112.554 44.3736C111.795 48.0271 109.805 52.0846 106.142 53.476C105.135 53.8584 104.153 54.1567 103.071 54.2445C98.4329 54.6209 93.5084 53.3678 90.3338 49.7997C87.8728 53.3437 84.9315 56.7843 80.3075 57.3195C79.2585 57.4097 78.2606 57.5227 77.2478 57.3712L72.539 56.6665C71.4151 61.0499 69.2272 64.6372 66.1936 67.9972L63.6415 70.4721C61.1892 72.6452 58.465 74.3866 55.5025 75.8333L53.2573 76.8338C48.2291 78.9119 42.9615 80.1025 37.4819 80.4488H31.5507C25.3451 80.082 19.3627 78.4116 13.9666 75.4328C6.42883 71.2707 0.699701 64.0588 0.00117896 55.5962C-0.0100473 55.4651 0.0598049 55.1789 0.172067 55.1524C0.28433 55.1259 0.486402 55.2666 0.60116 55.3653C1.96951 56.5462 3.31542 57.6093 4.8372 58.6279C9.32645 61.6355 14.1176 64.007 19.2966 65.7063C19.717 65.9552 20.0064 66.4182 20.3793 66.797V66.7982ZM106.029 42.7008L107.166 42.6154C106.188 39.2686 103.768 35.7872 100.637 34.0891C98.882 33.1367 96.8176 32.7518 94.954 33.3928C94.1433 33.6718 93.6343 34.1408 93.3387 34.9033L93.0368 36.6061L93.0181 40.7009C95.907 41.9504 98.9182 42.4723 102.063 42.6924L106.031 42.7032L106.029 42.7008Z" fill="#3CAD67"/>
<path d="M73.7815 27.3468C77.1495 27.3468 79.8798 24.7145 79.8798 21.4673C79.8798 18.2202 77.1495 15.5879 73.7815 15.5879C70.4134 15.5879 67.6831 18.2202 67.6831 21.4673C67.6831 24.7145 70.4134 27.3468 73.7815 27.3468Z" fill="#3CAD67"/>
<path d="M42.2952 44.741C41.3061 41.5109 39.1057 38.6667 36.8355 36.2976C36.3827 35.825 36.1195 35.3272 36.5998 34.7571C38.3635 32.6658 40.0537 30.5024 42.0333 28.6288C42.5285 28.1597 43.2045 28.7586 43.4378 29.0749L45.0095 31.2083C46.5275 33.6231 47.1899 36.3566 47.3171 39.2151C47.4855 43.0117 46.8606 48.445 44.9858 51.7497C44.7076 52.2391 44.0228 53.2337 42.9838 54.2282C41.3984 55.7447 38.361 57.7638 20.2943 57.3501C20.2943 57.3501 12.9885 57.183 6.54336 54.4651C6.08309 54.2715 4.91181 53.7688 3.97879 52.6348C3.65697 52.2439 3.38504 51.8038 3.16925 51.3107C2.77259 50.4076 2.43456 49.3878 2.38965 48.3596C2.30109 46.3368 2.29735 44.3405 2.39713 42.3262L2.52811 39.6853L2.65409 37.1671L2.77509 34.8714L2.89733 32.5732L3.02331 30.3028L3.15678 27.9072L3.27278 25.8508L3.40001 23.5659L3.526 21.1655L3.65073 18.877L3.77796 16.2361L3.89522 14.1869L4.02494 11.902L4.09355 10.0139C4.10352 9.7217 4.08606 9.03142 4.3031 8.82578L7.20571 6.06705L10.3229 3.18685L12.8089 0.891116L13.8629 0C14.0837 0.282608 14.2022 0.648194 14.1747 1.00296L14.0338 2.82247L13.9028 4.62514L13.7806 6.30877L13.6583 7.9996L13.5298 9.79506L13.4101 11.4859L13.2754 13.4016L13.1669 14.9722L13.0284 17.013L12.9086 18.6942L12.7752 20.4969L12.6592 22.0602L12.5344 23.8713L12.4085 25.7883L12.2837 27.5933L12.1627 29.2757L12.033 31.0796L11.9045 32.8835L11.7823 34.5671L11.6588 36.2507L11.5602 37.6926L11.4829 38.9097L11.4879 41.8752C11.6663 42.7892 12.0654 44.1325 13.0933 45.3555C17.2931 50.3559 27.7934 48.3692 33.1359 47.3578C36.7619 46.6712 39.8417 45.6886 42.2952 44.7386V44.741Z" fill="#3CAD67"/>
<path d="M49.5513 52.0099L49.6798 49.1983L49.802 46.7895L49.928 44.145L50.049 41.6112L50.1775 38.8548L50.2947 36.3066L50.4257 33.5635L50.5517 30.9166L50.6752 28.0328L50.7987 25.3751L50.9309 22.3494L50.9858 19.9743C48.4212 21.0915 46.0001 22.0247 43.3731 22.9146L32.3078 26.6642C26.9117 28.4922 21.2462 30.5342 17.0039 34.2802L15.759 35.3794C15.7092 35.4239 15.567 35.4948 15.5008 35.508C15.4123 35.5249 15.32 35.2772 15.29 35.1605C15.7353 32.0999 17.1062 29.3472 19.1743 26.9949C22.2915 23.4966 26.7159 21.6495 31.139 20.0115L38.7167 17.2059C43.0862 15.5884 47.2424 13.7473 51.3812 11.6259C55.5249 9.50334 59.3818 7.12703 63.0602 4.19873C63.387 4.79762 63.1775 5.36283 63.0727 5.94849L61.8203 12.9163L61.3089 17.141L61.1755 19.0603L61.0495 20.863L60.9335 22.555L60.8037 24.4791L60.6715 26.3949L60.5605 27.9606L60.432 29.7645L60.3098 31.4481L60.1763 33.2508L60.0503 34.9344L59.9418 36.3859L59.7971 38.4207L59.6749 40.1043L59.5576 41.6677L59.4304 43.3645L59.3194 45.1576C58.6296 49.0961 56.6663 52.705 53.7325 55.4782C52.4477 56.6928 51.098 57.5514 49.3255 58.0806L49.3081 57.2737L49.4253 54.7254L49.5488 52.0099H49.5513Z" fill="#3CAD67"/>
<path d="M46.0376 65.8818L41.0956 70.1281C40.9484 70.2544 40.7114 70.4252 40.5655 70.4348C40.4195 70.4444 40.195 70.2424 40.049 70.1185L34.5145 65.4044L28.9949 70.1293C28.8565 70.2472 28.6045 70.4168 28.4611 70.4348C28.2927 70.4564 28.0594 70.1979 27.8935 70.0536L22.0559 64.9895C21.9448 64.8933 21.7864 64.6792 21.7789 64.565C21.769 64.4267 21.9548 64.203 22.0945 64.0815L26.5551 60.1996L27.8723 59.0535C28.0582 58.8912 28.5459 58.5003 28.7879 58.7096L32.031 61.5116L33.3395 62.6517L34.5245 63.7063L35.4126 62.9692L40.2 58.8082C40.5418 58.5112 40.8748 58.7252 41.148 58.9609L42.9292 60.499L47.4659 64.4892C47.0006 65.1001 46.5466 65.4405 46.0364 65.8794L46.0376 65.8818Z" fill="#3CAD67"/>
</svg>
